<svg xmlns="http://www.w3.org/2000/svg" viewBox="0 0 512 512"><path fill="#264DE4" d="M71.2,460.3 L30.2,0 481.8,0 440.8,460.3 256,512"/><path fill="#2965F1" d="M256,472.1 L405.5,430.6 440.8,37.3 256,37.3"/><path fill="#EBEBEB" d="M256,208.4 L311.6,208.4 305.9,271.8 256,285.4 L256,344.6 L339.7,321.6 348.6,222.1 350.5,200.4 350.5,200.4 355.9,140 256,140"/><path fill="#FFFFFF" d="M256,208.4 L256,344.6 L206.1,331 L202.7,293.4 L146.9,293.4 L154,373.1 256,401.5 256,462.6"/><path fill="#EBEBEB" d="M256,94.5 L256,153.6 360,153.6 365.3,94.5"/><path fill="#FFFFFF" d="M256,94.5 L147.1,94.5 152.5,153.6 256,153.6"/></svg>
