<svg xmlns="http://www.w3.org/2000/svg" viewBox="0 0 512 512"><path fill="#E34F26" d="M71,460 L30,0 481,0 440,460 255,512"/><path fill="#EF652A" d="M256,472 L405,431 440,37 256,37"/><path fill="#EBEBEB" d="M256,208 L181,208 176,150 256,150 256,94 121,94 135,263 256,263"/><path fill="#FFFFFF" d="M256,355 L255,355 192,338 188,293 132,293 139,382 255,414 256,414"/><path fill="#EBEBEB" d="M256,208 L256,263 311,263 305,338 256,355 256,414 372,382 385,232 387,208"/><path fill="#FFFFFF" d="M256,94 L256,150 391,150 396,94"/></svg>
